<svg width="1081" height="520" viewBox="0 0 1081 520" fill="none" xmlns="http://www.w3.org/2000/svg">
<rect width="1080" height="520" fill="#F09C54"/>
<rect x="354.351" y="494.923" width="55.8415" height="9.30692" transform="rotate(-120 354.351 494.923)" fill="#093842"/>
<rect x="317.914" y="478.348" width="55.8415" height="9.30692" transform="rotate(-30 317.914 478.348)" fill="#093842"/>
<rect x="872.461" y="397.371" width="75.6049" height="12.6008" transform="rotate(-135 872.461 397.371)" fill="#093842"/>
<rect x="819" y="388.462" width="75.6049" height="12.6008" transform="rotate(-45 819 388.462)" fill="#093842"/>
<rect x="339.069" y="172.055" width="75.6049" height="12.6008" transform="rotate(-165 339.069 172.055)" fill="#093842"/>
<rect x="288.316" y="191.07" width="75.6049" height="12.6008" transform="rotate(-75 288.316 191.07)" fill="#093842"/>
<rect x="935.935" y="141.191" width="36.0395" height="6.00658" transform="rotate(-165 935.935 141.191)" fill="#093842"/>
<rect x="911.742" y="150.256" width="36.0395" height="6.00658" transform="rotate(-75 911.742 150.256)" fill="#093842"/>
<rect x="757.599" y="108.88" width="24.9787" height="4.16312" transform="rotate(-165 757.599 108.88)" fill="#093842"/>
<rect x="740.831" y="115.162" width="24.9787" height="4.16312" transform="rotate(-75 740.831 115.162)" fill="#093842"/>
<circle cx="582.5" cy="282.5" r="210.5" stroke="#F0DDBC" stroke-opacity="0.5" stroke-width="8"/>
<circle cx="582.5" cy="282.5" r="160.5" stroke="#F0DDBC" stroke-opacity="0.5" stroke-width="8"/>
<circle cx="582.5" cy="282.5" r="110.5" stroke="#F0DDBC" stroke-opacity="0.5" stroke-width="8"/>
<path d="M1081 320V520H881L1081 320Z" fill="#093842"/>
<path d="M0 200L1.74846e-05 -1.74846e-05L200 0L0 200Z" fill="#093842"/>
</svg>
