<svg width="1080" height="520" viewBox="0 0 1080 520" fill="none" xmlns="http://www.w3.org/2000/svg">
<rect width="1080" height="520" fill="#921A1A"/>
<g clip-path="url(#clip0_3004_221)">
<path d="M667.25 99.6035L631.124 243.725L774 284.5L631.124 325.275L667.25 469.396L560.5 366.05L453.75 469.396L489.876 325.275L347 284.5L489.876 243.725L453.75 99.6035L560.5 202.95L667.25 99.6035Z" fill="#3E0505"/>
<path d="M780.802 92.802L794.965 123.604L780.802 154.406L811.604 140.243L842.406 154.406L828.243 123.604L842.406 92.802L811.604 106.965L780.802 92.802Z" fill="#3E0505"/>
<path d="M289.802 427.802L303.965 458.604L289.802 489.406L320.604 475.243L351.406 489.406L337.243 458.604L351.406 427.802L320.604 441.965L289.802 427.802Z" fill="#3E0505"/>
</g>
<defs>
<clipPath id="clip0_3004_221">
<rect width="1080" height="520" fill="white"/>
</clipPath>
</defs>
</svg>
